<svg width="94" height="60" viewBox="0 0 94 60" fill="none" xmlns="http://www.w3.org/2000/svg">
<path d="M46.1999 8.92792C45.6161 9.73879 44.8465 10.335 43.8117 10.6451C43.7055 10.6689 43.5728 10.6926 43.4136 10.7165C43.4401 10.335 43.4666 9.97733 43.4666 9.59566C43.5994 6.32855 41.052 3.27605 37.2837 2.46521C35.1343 1.98826 33.0379 2.25059 30.9681 2.87063C28.8452 3.51452 27.0141 4.58766 25.3158 5.87545C23.1133 7.54472 21.2822 9.5241 19.6371 11.6466C17.1425 14.8422 15.0993 18.2525 13.2418 21.758C12.7375 22.712 12.2599 23.642 11.8354 24.6675C12.021 24.5244 12.1802 24.3813 12.366 24.2382C14.5686 22.4258 17.0364 20.9949 19.9288 20.2319C23.989 19.1825 28.0491 19.087 32.056 20.3987C34.3116 21.138 36.2487 22.3065 37.894 23.8567C38.0533 23.9998 38.2126 24.1666 38.3716 24.3336C38.4247 24.3813 38.4247 24.429 38.5043 24.5244C36.8858 25.2399 35.2935 25.9792 33.6748 26.6945C33.542 26.5038 33.4093 26.3607 33.3033 26.1937C31.2599 23.3559 28.3145 21.9966 24.5994 21.8773C20.1146 21.758 16.5057 23.4513 13.507 26.313C11.172 28.5547 9.5001 31.1778 8.30602 34.0397C7.72206 35.4229 7.32411 36.8776 6.84651 38.2845C6.74034 38.5946 6.63416 38.8093 6.28929 38.9761C4.35199 39.8347 2.41489 40.6933 0.477784 41.5755C0.345066 41.6232 0.212349 41.6709 0 41.7663C0.0796307 41.0986 0.106174 40.5024 0.185804 39.9062C0.68994 36.3051 1.72495 32.7996 3.07829 29.3893C5.70533 22.7597 9.34084 16.6069 14.2235 11.0743C16.5853 8.4033 19.2124 5.99468 22.2906 3.99148C24.7586 2.39366 27.3857 1.12974 30.3578 0.462009C31.9498 0.104283 33.5686 -0.0388075 35.2139 0.00890092C37.4695 0.056592 39.6986 0.271228 41.8481 0.96281C43.1218 1.36821 44.2893 1.91672 45.2712 2.77525C47.2349 4.51612 47.5799 6.97244 46.1999 8.92792Z" fill="#212121"/>
<path d="M93.8594 6.11381C93.4613 6.54306 93.0633 6.97233 92.6919 7.3778C84.9166 15.7959 77.3272 24.3335 70.1624 33.2048C66.4207 37.8075 62.8383 42.5055 59.6009 47.4181C57.9821 49.8744 56.443 52.3784 55.2489 55.0255C54.7182 56.2179 54.2407 57.458 54.0018 58.7458C54.0018 58.7935 53.9487 58.8412 53.8956 58.9604C52.5423 58.7219 51.3747 58.1973 50.5255 57.2196C49.6498 56.1941 49.3047 55.0255 49.2253 53.7616C49.1191 51.8538 49.5967 50.0652 50.499 48.3483C52.9137 43.7933 55.8592 39.5245 59.1764 35.4705C62.9975 30.7962 67.1903 26.4083 71.6484 22.1871C75.7881 18.2524 80.0074 14.389 84.2001 10.5018C84.3859 10.3349 84.5717 10.1917 84.8106 10.0963C87.7031 8.78468 90.6219 7.47305 93.5144 6.18535C93.594 6.13766 93.7002 6.11381 93.7798 6.08995C93.8064 6.06611 93.8329 6.08995 93.8594 6.11381Z" fill="#212121"/>
<path d="M42.246 37.569C41.7419 41.3608 40.362 44.9141 38.0533 48.1335C34.3913 53.2369 29.4024 56.7665 22.8744 58.4358C20.0616 59.1751 17.1691 59.4852 14.2501 59.1751C8.4122 58.555 4.21947 55.8364 1.69841 51.043C1.35354 50.3992 1.11464 49.6837 0.849208 49.016C0.71649 48.682 0.637051 48.3244 0.504333 47.919C2.38835 47.0843 4.19293 46.2496 6.07695 45.415C6.18312 46.1303 6.26275 46.7742 6.36893 47.4181C6.7138 49.3975 7.3772 51.3053 8.54492 53.0463C9.84517 54.978 11.6496 56.361 14.1706 56.8619C16.2404 57.2673 18.2572 57.0764 20.2208 56.3848C22.0785 55.7409 23.7236 54.7633 25.2097 53.5709C27.0671 52.0684 28.6328 50.3514 29.9596 48.4436C32.4541 44.9141 34.232 41.0984 35.1077 36.9729C35.3997 35.5658 35.5059 34.1349 35.4528 32.704C35.4528 32.5611 35.4528 32.3941 35.4528 32.2032C37.4695 31.2971 39.4863 30.3908 41.5826 29.437C41.7419 29.9855 41.9012 30.4624 42.0337 30.9632C42.5911 33.1811 42.5646 35.375 42.246 37.569Z" fill="#212121"/>
<path d="M92.6121 0.247648C92.3999 0.343047 92.161 0.462284 91.9487 0.557666C87.517 2.56088 83.0591 4.54025 78.654 6.54346C77.4599 7.09195 76.2391 7.47345 74.9654 7.71199C71.8871 8.30817 68.809 8.83279 65.6776 9.04748C64.2181 9.1429 62.7586 9.23832 61.2991 9.19061C58.6721 9.09519 56.5757 8.04595 55.1693 6.04266C54.1874 4.65948 54.0546 3.15708 54.6917 1.60697C54.7182 1.55928 54.7446 1.51159 54.7711 1.46388C54.7977 1.44005 54.8242 1.41619 54.8507 1.3685C54.9038 1.3685 54.9304 1.34465 54.9835 1.3685C56.8675 2.32241 58.9375 2.68012 61.0604 2.91861C63.6344 3.20477 66.2349 3.25247 68.809 3.13323C71.9402 2.9663 75.045 2.58474 78.1499 2.10777C81.9975 1.51159 85.8188 0.867702 89.6665 0.271502C90.3299 0.176103 91.02 0.128411 91.6834 0.0807201C92.0018 0.0568659 92.2937 0.104575 92.6121 0.128412C92.5855 0.152266 92.6121 0.199957 92.6121 0.247648Z" fill="#212121"/>
</svg>
